{
    "asset" : {
        "generator" : "Khronos glTF Blender I/O v3.5.5",
        "version" : "2.0"
    },
    "scene" : 0,
    "scenes" : [
        {
            "name" : "Scene",
            "nodes" : [
                0
            ]
        }
    ],
    "nodes" : [
        {
            "mesh" : 0,
            "name" : "LOD0",
            "translation" : [
                1.895606279373169,
                -118.15038299560547,
                42.230220794677734
            ]
        }
    ],
    "materials" : [
        {
            "doubleSided" : true,
            "name" : "MI_HeadSynthesized_Baked",
            "pbrMetallicRoughness" : {
                "baseColorFactor" : [
                    0.800000011920929,
                    0.800000011920929,
                    0.800000011920929,
                    1
                ],
                "metallicFactor" : 0,
                "roughnessFactor" : 0.4000000059604645
            }
        },
        {
            "doubleSided" : true,
            "name" : "M_TeethCharacterCreator_Inst",
            "pbrMetallicRoughness" : {
                "baseColorFactor" : [
                    0.800000011920929,
                    0.800000011920929,
                    0.800000011920929,
                    1
                ],
                "metallicFactor" : 0,
                "roughnessFactor" : 0.4000000059604645
            }
        },
        {
            "doubleSided" : true,
            "name" : "MI_lacrimal_fluid_Inst",
            "pbrMetallicRoughness" : {
                "baseColorFactor" : [
                    0.800000011920929,
                    0.800000011920929,
                    0.800000011920929,
                    1
                ],
                "metallicFactor" : 0,
                "roughnessFactor" : 0.4000000059604645
            }
        },
        {
            "doubleSided" : true,
            "name" : "MI_EyeRefractive_Inst_L",
            "pbrMetallicRoughness" : {
                "baseColorFactor" : [
                    0.800000011920929,
                    0.800000011920929,
                    0.800000011920929,
                    1
                ],
                "metallicFactor" : 0,
                "roughnessFactor" : 0.4000000059604645
            }
        },
        {
            "doubleSided" : true,
            "name" : "MI_EyeRefractive_Inst_R",
            "pbrMetallicRoughness" : {
                "baseColorFactor" : [
                    0.800000011920929,
                    0.800000011920929,
                    0.800000011920929,
                    1
                ],
                "metallicFactor" : 0,
                "roughnessFactor" : 0.4000000059604645
            }
        },
        {
            "doubleSided" : true,
            "name" : "MI_EyeOcclusion_Inst",
            "pbrMetallicRoughness" : {
                "baseColorFactor" : [
                    0.800000011920929,
                    0.800000011920929,
                    0.800000011920929,
                    1
                ],
                "metallicFactor" : 0,
                "roughnessFactor" : 0.4000000059604645
            }
        },
        {
            "doubleSided" : true,
            "name" : "M_EyelashLowerLODs_Inst",
            "pbrMetallicRoughness" : {
                "baseColorFactor" : [
                    0.800000011920929,
                    0.800000011920929,
                    0.800000011920929,
                    1
                ],
                "metallicFactor" : 0,
                "roughnessFactor" : 0.4000000059604645
            }
        },
        {
            "doubleSided" : true,
            "name" : "M_Cartilage",
            "pbrMetallicRoughness" : {
                "baseColorFactor" : [
                    0.800000011920929,
                    0.800000011920929,
                    0.800000011920929,
                    1
                ],
                "metallicFactor" : 0,
                "roughnessFactor" : 0.4000000059604645
            }
        }
    ],
    "meshes" : [
        {
            "name" : "LOD0",
            "primitives" : [
                {
                    "attributes" : {
                        "POSITION" : 0,
                        "TEXCOORD_0" : 1,
                        "NORMAL" : 2
                    },
                    "indices" : 3,
                    "material" : 0
                },
                {
                    "attributes" : {
                        "POSITION" : 4,
                        "TEXCOORD_0" : 5,
                        "NORMAL" : 6
                    },
                    "indices" : 7,
                    "material" : 1
                },
                {
                    "attributes" : {
                        "POSITION" : 8,
                        "TEXCOORD_0" : 9,
                        "NORMAL" : 10
                    },
                    "indices" : 11,
                    "material" : 2
                },
                {
                    "attributes" : {
                        "POSITION" : 12,
                        "TEXCOORD_0" : 13,
                        "NORMAL" : 14
                    },
                    "indices" : 15,
                    "material" : 3
                },
                {
                    "attributes" : {
                        "POSITION" : 16,
                        "TEXCOORD_0" : 17,
                        "NORMAL" : 18
                    },
                    "indices" : 19,
                    "material" : 4
                },
                {
                    "attributes" : {
                        "POSITION" : 20,
                        "TEXCOORD_0" : 21,
                        "NORMAL" : 22
                    },
                    "indices" : 23,
                    "material" : 5
                },
                {
                    "attributes" : {
                        "POSITION" : 24,
                        "TEXCOORD_0" : 25,
                        "NORMAL" : 26
                    },
                    "indices" : 27,
                    "material" : 6
                },
                {
                    "attributes" : {
                        "POSITION" : 28,
                        "TEXCOORD_0" : 29,
                        "NORMAL" : 30
                    },
                    "indices" : 31,
                    "material" : 7
                }
            ]
        }
    ],
    "accessors" : [
        {
            "bufferView" : 0,
            "componentType" : 5126,
            "count" : 24575,
            "max" : [
                18.822031021118164,
                184.1896514892578,
                14.884271621704102
            ],
            "min" : [
                -18.819793701171875,
                141.57936096191406,
                -10.481077194213867
            ],
            "type" : "VEC3"
        },
        {
            "bufferView" : 1,
            "componentType" : 5126,
            "count" : 24575,
            "type" : "VEC2"
        },
        {
            "bufferView" : 2,
            "componentType" : 5126,
            "count" : 24575,
            "type" : "VEC3"
        },
        {
            "bufferView" : 3,
            "componentType" : 5123,
            "count" : 144012,
            "type" : "SCALAR"
        },
        {
            "bufferView" : 4,
            "componentType" : 5126,
            "count" : 4927,
            "max" : [
                4.0777268409729,
                164.56329345703125,
                13.068906784057617
            ],
            "min" : [
                -4.029392719268799,
                158.5819091796875,
                3.6176393032073975
            ],
            "type" : "VEC3"
        },
        {
            "bufferView" : 5,
            "componentType" : 5126,
            "count" : 4927,
            "type" : "VEC2"
        },
        {
            "bufferView" : 6,
            "componentType" : 5126,
            "count" : 4927,
            "type" : "VEC3"
        },
        {
            "bufferView" : 7,
            "componentType" : 5123,
            "count" : 25050,
            "type" : "SCALAR"
        },
        {
            "bufferView" : 8,
            "componentType" : 5126,
            "count" : 940,
            "max" : [
                4.9111456871032715,
                170.71044921875,
                13.030438423156738
            ],
            "min" : [
                -4.892370700836182,
                160.5441436767578,
                7.250151634216309
            ],
            "type" : "VEC3"
        },
        {
            "bufferView" : 9,
            "componentType" : 5126,
            "count" : 940,
            "type" : "VEC2"
        },
        {
            "bufferView" : 10,
            "componentType" : 5126,
            "count" : 940,
            "type" : "VEC3"
        },
        {
            "bufferView" : 11,
            "componentType" : 5123,
            "count" : 4170,
            "type" : "SCALAR"
        },
        {
            "bufferView" : 12,
            "componentType" : 5126,
            "count" : 810,
            "max" : [
                5.019073009490967,
                171.93849182128906,
                11.964744567871094
            ],
            "min" : [
                1.8401787281036377,
                168.7705841064453,
                8.73298454284668
            ],
            "type" : "VEC3"
        },
        {
            "bufferView" : 13,
            "componentType" : 5126,
            "count" : 810,
            "type" : "VEC2"
        },
        {
            "bufferView" : 14,
            "componentType" : 5126,
            "count" : 810,
            "type" : "VEC3"
        },
        {
            "bufferView" : 15,
            "componentType" : 5123,
            "count" : 4608,
            "type" : "SCALAR"
        },
        {
            "bufferView" : 16,
            "componentType" : 5126,
            "count" : 812,
            "max" : [
                -1.8166791200637817,
                171.9150848388672,
                11.912070274353027
            ],
            "min" : [
                -4.995534896850586,
                168.7364501953125,
                8.660548210144043
            ],
            "type" : "VEC3"
        },
        {
            "bufferView" : 17,
            "componentType" : 5126,
            "count" : 812,
            "type" : "VEC2"
        },
        {
            "bufferView" : 18,
            "componentType" : 5126,
            "count" : 812,
            "type" : "VEC3"
        },
        {
            "bufferView" : 19,
            "componentType" : 5123,
            "count" : 4608,
            "type" : "SCALAR"
        },
        {
            "bufferView" : 20,
            "componentType" : 5126,
            "count" : 590,
            "max" : [
                4.9796366691589355,
                170.7763214111328,
                12.193599700927734
            ],
            "min" : [
                -4.970699787139893,
                169.4819793701172,
                10.8401517868042
            ],
            "type" : "VEC3"
        },
        {
            "bufferView" : 21,
            "componentType" : 5126,
            "count" : 590,
            "type" : "VEC2"
        },
        {
            "bufferView" : 22,
            "componentType" : 5126,
            "count" : 590,
            "type" : "VEC3"
        },
        {
            "bufferView" : 23,
            "componentType" : 5123,
            "count" : 2940,
            "type" : "SCALAR"
        },
        {
            "bufferView" : 24,
            "componentType" : 5126,
            "count" : 2144,
            "max" : [
                5.8719892501831055,
                171.46627807617188,
                13.148416519165039
            ],
            "min" : [
                -5.667875289916992,
                168.8985595703125,
                10.660078048706055
            ],
            "type" : "VEC3"
        },
        {
            "bufferView" : 25,
            "componentType" : 5126,
            "count" : 2144,
            "type" : "VEC2"
        },
        {
            "bufferView" : 26,
            "componentType" : 5126,
            "count" : 2144,
            "type" : "VEC3"
        },
        {
            "bufferView" : 27,
            "componentType" : 5123,
            "count" : 5166,
            "type" : "SCALAR"
        },
        {
            "bufferView" : 28,
            "componentType" : 5126,
            "count" : 386,
            "max" : [
                5.221216201782227,
                171.16641235351562,
                12.243145942687988
            ],
            "min" : [
                -5.202115058898926,
                169.28985595703125,
                10.722246170043945
            ],
            "type" : "VEC3"
        },
        {
            "bufferView" : 29,
            "componentType" : 5126,
            "count" : 386,
            "type" : "VEC2"
        },
        {
            "bufferView" : 30,
            "componentType" : 5126,
            "count" : 386,
            "type" : "VEC3"
        },
        {
            "bufferView" : 31,
            "componentType" : 5123,
            "count" : 1728,
            "type" : "SCALAR"
        }
    ],
    "bufferViews" : [
        {
            "buffer" : 0,
            "byteLength" : 294900,
            "byteOffset" : 0,
            "target" : 34962
        },
        {
            "buffer" : 0,
            "byteLength" : 196600,
            "byteOffset" : 294900,
            "target" : 34962
        },
        {
            "buffer" : 0,
            "byteLength" : 294900,
            "byteOffset" : 491500,
            "target" : 34962
        },
        {
            "buffer" : 0,
            "byteLength" : 288024,
            "byteOffset" : 786400,
            "target" : 34963
        },
        {
            "buffer" : 0,
            "byteLength" : 59124,
            "byteOffset" : 1074424,
            "target" : 34962
        },
        {
            "buffer" : 0,
            "byteLength" : 39416,
            "byteOffset" : 1133548,
            "target" : 34962
        },
        {
            "buffer" : 0,
            "byteLength" : 59124,
            "byteOffset" : 1172964,
            "target" : 34962
        },
        {
            "buffer" : 0,
            "byteLength" : 50100,
            "byteOffset" : 1232088,
            "target" : 34963
        },
        {
            "buffer" : 0,
            "byteLength" : 11280,
            "byteOffset" : 1282188,
            "target" : 34962
        },
        {
            "buffer" : 0,
            "byteLength" : 7520,
            "byteOffset" : 1293468,
            "target" : 34962
        },
        {
            "buffer" : 0,
            "byteLength" : 11280,
            "byteOffset" : 1300988,
            "target" : 34962
        },
        {
            "buffer" : 0,
            "byteLength" : 8340,
            "byteOffset" : 1312268,
            "target" : 34963
        },
        {
            "buffer" : 0,
            "byteLength" : 9720,
            "byteOffset" : 1320608,
            "target" : 34962
        },
        {
            "buffer" : 0,
            "byteLength" : 6480,
            "byteOffset" : 1330328,
            "target" : 34962
        },
        {
            "buffer" : 0,
            "byteLength" : 9720,
            "byteOffset" : 1336808,
            "target" : 34962
        },
        {
            "buffer" : 0,
            "byteLength" : 9216,
            "byteOffset" : 1346528,
            "target" : 34963
        },
        {
            "buffer" : 0,
            "byteLength" : 9744,
            "byteOffset" : 1355744,
            "target" : 34962
        },
        {
            "buffer" : 0,
            "byteLength" : 6496,
            "byteOffset" : 1365488,
            "target" : 34962
        },
        {
            "buffer" : 0,
            "byteLength" : 9744,
            "byteOffset" : 1371984,
            "target" : 34962
        },
        {
            "buffer" : 0,
            "byteLength" : 9216,
            "byteOffset" : 1381728,
            "target" : 34963
        },
        {
            "buffer" : 0,
            "byteLength" : 7080,
            "byteOffset" : 1390944,
            "target" : 34962
        },
        {
            "buffer" : 0,
            "byteLength" : 4720,
            "byteOffset" : 1398024,
            "target" : 34962
        },
        {
            "buffer" : 0,
            "byteLength" : 7080,
            "byteOffset" : 1402744,
            "target" : 34962
        },
        {
            "buffer" : 0,
            "byteLength" : 5880,
            "byteOffset" : 1409824,
            "target" : 34963
        },
        {
            "buffer" : 0,
            "byteLength" : 25728,
            "byteOffset" : 1415704,
            "target" : 34962
        },
        {
            "buffer" : 0,
            "byteLength" : 17152,
            "byteOffset" : 1441432,
            "target" : 34962
        },
        {
            "buffer" : 0,
            "byteLength" : 25728,
            "byteOffset" : 1458584,
            "target" : 34962
        },
        {
            "buffer" : 0,
            "byteLength" : 10332,
            "byteOffset" : 1484312,
            "target" : 34963
        },
        {
            "buffer" : 0,
            "byteLength" : 4632,
            "byteOffset" : 1494644,
            "target" : 34962
        },
        {
            "buffer" : 0,
            "byteLength" : 3088,
            "byteOffset" : 1499276,
            "target" : 34962
        },
        {
            "buffer" : 0,
            "byteLength" : 4632,
            "byteOffset" : 1502364,
            "target" : 34962
        },
        {
            "buffer" : 0,
            "byteLength" : 3456,
            "byteOffset" : 1506996,
            "target" : 34963
        }
    ],
    "buffers" : [
        {
            "byteLength" : 1510452,
            "uri" : "data:application/octet-stream;base64,"
        }
    ]
}
