{
  "asset": {
    "version": "2.0",
    "generator": "THREE.GLTFExporter"
  },
  "scenes": [
    {
      "name": "Scene",
      "nodes": [
        9,
        10,
        11,
        12,
        13
      ]
    }
  ],
  "scene": 0,
  "nodes": [
    {
      "name": "LOD0_1",
      "mesh": 0
    },
    {
      "name": "LOD0_2",
      "mesh": 1
    },
    {
      "name": "LOD0_3",
      "mesh": 2
    },
    {
      "name": "LOD0_4",
      "mesh": 3
    },
    {
      "name": "LOD0_5",
      "mesh": 4
    },
    {
      "name": "LOD0_6",
      "mesh": 5
    },
    {
      "name": "LOD0_7",
      "mesh": 6
    },
    {
      "name": "LOD0_8",
      "mesh": 7
    },
    {
      "matrix": [
        0.24655187129974365,
        0,
        0,
        0,
        0,
        0.24655187129974365,
        0,
        0,
        0,
        0,
        0.24655187129974365,
        0,
        0,
        6.104223728179932,
        0,
        1
      ],
      "name": "LOD0",
      "extras": {
        "name": "LOD0"
      },
      "children": [
        0,
        1,
        2,
        3,
        4,
        5,
        6,
        7
      ]
    },
    {
      "name": "centered.glb",
      "children": [
        8
      ]
    },
    {
      "matrix": [
        1,
        0,
        0,
        0,
        0,
        1,
        0,
        0,
        0,
        0,
        1,
        0,
        25.714461367750747,
        10.650003739772465,
        -2.4703124074478797,
        1
      ],
      "name": "DirectionalLight",
      "extensions": {
        "KHR_lights_punctual": {
          "light": 0
        }
      }
    },
    {
      "matrix": [
        1,
        0,
        0,
        0,
        0,
        1,
        0,
        0,
        0,
        0,
        1,
        0,
        -22.046100195475226,
        10,
        -1.630384500747546,
        1
      ],
      "name": "DirectionalLight",
      "extensions": {
        "KHR_lights_punctual": {
          "light": 1
        }
      }
    },
    {
      "matrix": [
        1,
        0,
        0,
        0,
        0,
        1,
        0,
        0,
        0,
        0,
        1,
        0,
        -1.45786596597139,
        18.944603803775806,
        -61.537626346519104,
        1
      ],
      "name": "DirectionalLight",
      "extensions": {
        "KHR_lights_punctual": {
          "light": 2
        }
      }
    },
    {
      "matrix": [
        1,
        0,
        0,
        0,
        0,
        1,
        0,
        0,
        0,
        0,
        1,
        0,
        -1.45786596597139,
        13.25578145318758,
        47.38146729148997,
        1
      ],
      "name": "DirectionalLight",
      "extensions": {
        "KHR_lights_punctual": {
          "light": 3
        }
      }
    }
  ],
  "bufferViews": [
    {
      "buffer": 0,
      "byteOffset": 0,
      "byteLength": 294936,
      "target": 34962,
      "byteStride": 12
    },
    {
      "buffer": 0,
      "byteOffset": 294936,
      "byteLength": 294936,
      "target": 34962,
      "byteStride": 12
    },
    {
      "buffer": 0,
      "byteOffset": 589872,
      "byteLength": 196624,
      "target": 34962,
      "byteStride": 8
    },
    {
      "buffer": 0,
      "byteOffset": 786496,
      "byteLength": 288024,
      "target": 34963
    },
    {
      "buffer": 0,
      "byteOffset": 1074520,
      "byteLength": 59364,
      "target": 34962,
      "byteStride": 12
    },
    {
      "buffer": 0,
      "byteOffset": 1133884,
      "byteLength": 59364,
      "target": 34962,
      "byteStride": 12
    },
    {
      "buffer": 0,
      "byteOffset": 1193248,
      "byteLength": 39576,
      "target": 34962,
      "byteStride": 8
    },
    {
      "buffer": 0,
      "byteOffset": 1232824,
      "byteLength": 50100,
      "target": 34963
    },
    {
      "buffer": 0,
      "byteOffset": 1282924,
      "byteLength": 11292,
      "target": 34962,
      "byteStride": 12
    },
    {
      "buffer": 0,
      "byteOffset": 1294216,
      "byteLength": 11292,
      "target": 34962,
      "byteStride": 12
    },
    {
      "buffer": 0,
      "byteOffset": 1305508,
      "byteLength": 7528,
      "target": 34962,
      "byteStride": 8
    },
    {
      "buffer": 0,
      "byteOffset": 1313036,
      "byteLength": 8340,
      "target": 34963
    },
    {
      "buffer": 0,
      "byteOffset": 1321376,
      "byteLength": 9720,
      "target": 34962,
      "byteStride": 12
    },
    {
      "buffer": 0,
      "byteOffset": 1331096,
      "byteLength": 9720,
      "target": 34962,
      "byteStride": 12
    },
    {
      "buffer": 0,
      "byteOffset": 1340816,
      "byteLength": 6480,
      "target": 34962,
      "byteStride": 8
    },
    {
      "buffer": 0,
      "byteOffset": 1347296,
      "byteLength": 9216,
      "target": 34963
    },
    {
      "buffer": 0,
      "byteOffset": 1356512,
      "byteLength": 9744,
      "target": 34962,
      "byteStride": 12
    },
    {
      "buffer": 0,
      "byteOffset": 1366256,
      "byteLength": 9744,
      "target": 34962,
      "byteStride": 12
    },
    {
      "buffer": 0,
      "byteOffset": 1376000,
      "byteLength": 6496,
      "target": 34962,
      "byteStride": 8
    },
    {
      "buffer": 0,
      "byteOffset": 1382496,
      "byteLength": 9216,
      "target": 34963
    },
    {
      "buffer": 0,
      "byteOffset": 1391712,
      "byteLength": 7092,
      "target": 34962,
      "byteStride": 12
    },
    {
      "buffer": 0,
      "byteOffset": 1398804,
      "byteLength": 7092,
      "target": 34962,
      "byteStride": 12
    },
    {
      "buffer": 0,
      "byteOffset": 1405896,
      "byteLength": 4728,
      "target": 34962,
      "byteStride": 8
    },
    {
      "buffer": 0,
      "byteOffset": 1410624,
      "byteLength": 5880,
      "target": 34963
    },
    {
      "buffer": 0,
      "byteOffset": 1416504,
      "byteLength": 25728,
      "target": 34962,
      "byteStride": 12
    },
    {
      "buffer": 0,
      "byteOffset": 1442232,
      "byteLength": 25728,
      "target": 34962,
      "byteStride": 12
    },
    {
      "buffer": 0,
      "byteOffset": 1467960,
      "byteLength": 17152,
      "target": 34962,
      "byteStride": 8
    },
    {
      "buffer": 0,
      "byteOffset": 1485112,
      "byteLength": 10332,
      "target": 34963
    },
    {
      "buffer": 0,
      "byteOffset": 1495444,
      "byteLength": 4632,
      "target": 34962,
      "byteStride": 12
    },
    {
      "buffer": 0,
      "byteOffset": 1500076,
      "byteLength": 4632,
      "target": 34962,
      "byteStride": 12
    },
    {
      "buffer": 0,
      "byteOffset": 1504708,
      "byteLength": 3088,
      "target": 34962,
      "byteStride": 8
    },
    {
      "buffer": 0,
      "byteOffset": 1507796,
      "byteLength": 3456,
      "target": 34963
    }
  ],
  "buffers": [
    {
      "byteLength": 1511252,
      "uri": "data:application/octet-stream;base64,"
    }
  ],
  "accessors": [
    {
      "bufferView": 0,
      "componentType": 5126,
      "count": 24578,
      "max": [
        18.78847885131836,
        18.381011962890625,
        6.097095966339111
      ],
      "min": [
        -18.85334587097168,
        -24.22927474975586,
        -19.268253326416016
      ],
      "type": "VEC3"
    },
    {
      "bufferView": 1,
      "componentType": 5126,
      "count": 24578,
      "max": [
        0.9998503923416138,
        0.9999758005142212,
        0.9999829530715942
      ],
      "min": [
        -0.999833345413208,
        -0.9999526739120483,
        -0.9999802112579346
      ],
      "type": "VEC3"
    },
    {
      "bufferView": 2,
      "componentType": 5126,
      "count": 24578,
      "max": [
        0.9971519708633423,
        0.9921870231628418
      ],
      "min": [
        0.002848000032827258,
        0.007812023162841797
      ],
      "type": "VEC2"
    },
    {
      "bufferView": 3,
      "componentType": 5123,
      "count": 144012,
      "max": [
        24577
      ],
      "min": [
        0
      ],
      "type": "SCALAR"
    },
    {
      "bufferView": 4,
      "componentType": 5126,
      "count": 4947,
      "max": [
        4.044175624847412,
        -1.2453460693359375,
        4.281727313995361
      ],
      "min": [
        -4.062943935394287,
        -7.2267303466796875,
        -5.169539928436279
      ],
      "type": "VEC3"
    },
    {
      "bufferView": 5,
      "componentType": 5126,
      "count": 4947,
      "max": [
        0.9999405741691589,
        0.9996710419654846,
        0.9998312592506409
      ],
      "min": [
        -0.9999691247940063,
        -0.9999803304672241,
        -0.9990822672843933
      ],
      "type": "VEC3"
    },
    {
      "bufferView": 6,
      "componentType": 5126,
      "count": 4947,
      "max": [
        0.9931949973106384,
        0.978082001209259
      ],
      "min": [
        0.0071000000461936,
        0.011400997638702393
      ],
      "type": "VEC2"
    },
    {
      "bufferView": 7,
      "componentType": 5123,
      "count": 25050,
      "max": [
        4946
      ],
      "min": [
        0
      ],
      "type": "SCALAR"
    },
    {
      "bufferView": 8,
      "componentType": 5126,
      "count": 941,
      "max": [
        4.877594470977783,
        4.9018096923828125,
        4.243259906768799
      ],
      "min": [
        -4.92592191696167,
        -5.264495849609375,
        -1.5370250940322876
      ],
      "type": "VEC3"
    },
    {
      "bufferView": 9,
      "componentType": 5126,
      "count": 941,
      "max": [
        0.9994707703590393,
        0.93873131275177,
        0.9999996423721313
      ],
      "min": [
        -0.9955754280090332,
        -0.9131786823272705,
        -0.7878571152687073
      ],
      "type": "VEC3"
    },
    {
      "bufferView": 10,
      "componentType": 5126,
      "count": 941,
      "max": [
        0.4920850098133087,
        0.9952790141105652
      ],
      "min": [
        0.007915000431239605,
        0.003310978412628174
      ],
      "type": "VEC2"
    },
    {
      "bufferView": 11,
      "componentType": 5123,
      "count": 4170,
      "max": [
        940
      ],
      "min": [
        0
      ],
      "type": "SCALAR"
    },
    {
      "bufferView": 12,
      "componentType": 5126,
      "count": 810,
      "max": [
        4.9855217933654785,
        6.129852294921875,
        3.1775670051574707
      ],
      "min": [
        1.8066273927688599,
        2.961944580078125,
        -0.05419497936964035
      ],
      "type": "VEC3"
    },
    {
      "bufferView": 13,
      "componentType": 5126,
      "count": 810,
      "max": [
        0.9988553524017334,
        0.9996774792671204,
        0.9982189536094666
      ],
      "min": [
        -0.9988662004470825,
        -0.9998230934143066,
        -0.9976206421852112
      ],
      "type": "VEC3"
    },
    {
      "bufferView": 14,
      "componentType": 5126,
      "count": 810,
      "max": [
        0.9904739856719971,
        0.9904739856719971
      ],
      "min": [
        0.00952600035816431,
        0.00952601432800293
      ],
      "type": "VEC2"
    },
    {
      "bufferView": 15,
      "componentType": 5123,
      "count": 4608,
      "max": [
        809
      ],
      "min": [
        0
      ],
      "type": "SCALAR"
    },
    {
      "bufferView": 16,
      "componentType": 5126,
      "count": 812,
      "max": [
        -1.8502305746078491,
        6.1064453125,
        3.1248936653137207
      ],
      "min": [
        -5.029086112976074,
        2.9278106689453125,
        -0.12662844359874725
      ],
      "type": "VEC3"
    },
    {
      "bufferView": 17,
      "componentType": 5126,
      "count": 812,
      "max": [
        0.997979462146759,
        0.9994886517524719,
        0.99947589635849
      ],
      "min": [
        -0.9999887943267822,
        -0.9999452233314514,
        -0.9989522695541382
      ],
      "type": "VEC3"
    },
    {
      "bufferView": 18,
      "componentType": 5126,
      "count": 812,
      "max": [
        0.9904739856719971,
        0.9904739856719971
      ],
      "min": [
        0.00952600035816431,
        0.00952601432800293
      ],
      "type": "VEC2"
    },
    {
      "bufferView": 19,
      "componentType": 5123,
      "count": 4608,
      "max": [
        811
      ],
      "min": [
        0
      ],
      "type": "SCALAR"
    },
    {
      "bufferView": 20,
      "componentType": 5126,
      "count": 591,
      "max": [
        4.946085453033447,
        4.967681884765625,
        3.4064221382141113
      ],
      "min": [
        -5.004251003265381,
        3.67333984375,
        2.0529751777648926
      ],
      "type": "VEC3"
    },
    {
      "bufferView": 21,
      "componentType": 5126,
      "count": 591,
      "max": [
        0.7993844151496887,
        0.8230233192443848,
        0.9999313354492188
      ],
      "min": [
        -0.8145857453346252,
        -0.8961806893348694,
        0.4337906539440155
      ],
      "type": "VEC3"
    },
    {
      "bufferView": 22,
      "componentType": 5126,
      "count": 591,
      "max": [
        0.9917150139808655,
        0.9989339709281921
      ],
      "min": [
        0.00976799987256527,
        0.009226024150848389
      ],
      "type": "VEC2"
    },
    {
      "bufferView": 23,
      "componentType": 5123,
      "count": 2940,
      "max": [
        590
      ],
      "min": [
        0
      ],
      "type": "SCALAR"
    },
    {
      "bufferView": 24,
      "componentType": 5126,
      "count": 2144,
      "max": [
        5.838437557220459,
        5.6576385498046875,
        4.361240863800049
      ],
      "min": [
        -5.7014265060424805,
        3.0899200439453125,
        1.8728984594345093
      ],
      "type": "VEC3"
    },
    {
      "bufferView": 25,
      "componentType": 5126,
      "count": 2144,
      "max": [
        0.9649631381034851,
        0.9987773299217224,
        0.9946143627166748
      ],
      "min": [
        -0.8916647434234619,
        -0.9998633861541748,
        -0.819579005241394
      ],
      "type": "VEC3"
    },
    {
      "bufferView": 26,
      "componentType": 5126,
      "count": 2144,
      "max": [
        0.9965289831161499,
        1.0010119676589966
      ],
      "min": [
        0.00291600008495152,
        0.058323025703430176
      ],
      "type": "VEC2"
    },
    {
      "bufferView": 27,
      "componentType": 5123,
      "count": 5166,
      "max": [
        2143
      ],
      "min": [
        0
      ],
      "type": "SCALAR"
    },
    {
      "bufferView": 28,
      "componentType": 5126,
      "count": 386,
      "max": [
        5.18766450881958,
        5.3577728271484375,
        3.455967426300049
      ],
      "min": [
        -5.235666275024414,
        3.4812164306640625,
        1.9350703954696655
      ],
      "type": "VEC3"
    },
    {
      "bufferView": 29,
      "componentType": 5126,
      "count": 386,
      "max": [
        0.8776971697807312,
        0.8949852585792542,
        0.9988445043563843
      ],
      "min": [
        -0.9195947647094727,
        -0.9368048906326294,
        0.20609666407108307
      ],
      "type": "VEC3"
    },
    {
      "bufferView": 30,
      "componentType": 5126,
      "count": 386,
      "max": [
        0.6725190281867981,
        0.39181697368621826
      ],
      "min": [
        0.3274810016155243,
        0.3654940128326416
      ],
      "type": "VEC2"
    },
    {
      "bufferView": 31,
      "componentType": 5123,
      "count": 1728,
      "max": [
        385
      ],
      "min": [
        0
      ],
      "type": "SCALAR"
    }
  ],
  "materials": [
    {
      "pbrMetallicRoughness": {
        "baseColorFactor": [
          0.800000011920929,
          0.800000011920929,
          0.800000011920929,
          1
        ],
        "metallicFactor": 0,
        "roughnessFactor": 0.4000000059604645
      },
      "doubleSided": true,
      "name": "MI_HeadSynthesized_Baked"
    },
    {
      "pbrMetallicRoughness": {
        "baseColorFactor": [
          0.800000011920929,
          0.800000011920929,
          0.800000011920929,
          1
        ],
        "metallicFactor": 0,
        "roughnessFactor": 0.4000000059604645
      },
      "doubleSided": true,
      "name": "M_TeethCharacterCreator_Inst"
    },
    {
      "pbrMetallicRoughness": {
        "baseColorFactor": [
          0.800000011920929,
          0.800000011920929,
          0.800000011920929,
          1
        ],
        "metallicFactor": 0,
        "roughnessFactor": 0.4000000059604645
      },
      "doubleSided": true,
      "name": "MI_lacrimal_fluid_Inst"
    },
    {
      "pbrMetallicRoughness": {
        "baseColorFactor": [
          0.800000011920929,
          0.800000011920929,
          0.800000011920929,
          1
        ],
        "metallicFactor": 0,
        "roughnessFactor": 0.4000000059604645
      },
      "doubleSided": true,
      "name": "MI_EyeRefractive_Inst_L"
    },
    {
      "pbrMetallicRoughness": {
        "baseColorFactor": [
          0.800000011920929,
          0.800000011920929,
          0.800000011920929,
          1
        ],
        "metallicFactor": 0,
        "roughnessFactor": 0.4000000059604645
      },
      "doubleSided": true,
      "name": "MI_EyeRefractive_Inst_R"
    },
    {
      "pbrMetallicRoughness": {
        "baseColorFactor": [
          0.800000011920929,
          0.800000011920929,
          0.800000011920929,
          1
        ],
        "metallicFactor": 0,
        "roughnessFactor": 0.4000000059604645
      },
      "doubleSided": true,
      "name": "MI_EyeOcclusion_Inst"
    },
    {
      "pbrMetallicRoughness": {
        "baseColorFactor": [
          0.800000011920929,
          0.800000011920929,
          0.800000011920929,
          1
        ],
        "metallicFactor": 0,
        "roughnessFactor": 0.4000000059604645
      },
      "doubleSided": true,
      "name": "M_EyelashLowerLODs_Inst"
    },
    {
      "pbrMetallicRoughness": {
        "baseColorFactor": [
          0.800000011920929,
          0.800000011920929,
          0.800000011920929,
          1
        ],
        "metallicFactor": 0,
        "roughnessFactor": 0.4000000059604645
      },
      "doubleSided": true,
      "name": "M_Cartilage"
    }
  ],
  "meshes": [
    {
      "primitives": [
        {
          "mode": 4,
          "attributes": {
            "POSITION": 0,
            "NORMAL": 1,
            "TEXCOORD_0": 2
          },
          "indices": 3,
          "material": 0
        }
      ]
    },
    {
      "primitives": [
        {
          "mode": 4,
          "attributes": {
            "POSITION": 4,
            "NORMAL": 5,
            "TEXCOORD_0": 6
          },
          "indices": 7,
          "material": 1
        }
      ]
    },
    {
      "primitives": [
        {
          "mode": 4,
          "attributes": {
            "POSITION": 8,
            "NORMAL": 9,
            "TEXCOORD_0": 10
          },
          "indices": 11,
          "material": 2
        }
      ]
    },
    {
      "primitives": [
        {
          "mode": 4,
          "attributes": {
            "POSITION": 12,
            "NORMAL": 13,
            "TEXCOORD_0": 14
          },
          "indices": 15,
          "material": 3
        }
      ]
    },
    {
      "primitives": [
        {
          "mode": 4,
          "attributes": {
            "POSITION": 16,
            "NORMAL": 17,
            "TEXCOORD_0": 18
          },
          "indices": 19,
          "material": 4
        }
      ]
    },
    {
      "primitives": [
        {
          "mode": 4,
          "attributes": {
            "POSITION": 20,
            "NORMAL": 21,
            "TEXCOORD_0": 22
          },
          "indices": 23,
          "material": 5
        }
      ]
    },
    {
      "primitives": [
        {
          "mode": 4,
          "attributes": {
            "POSITION": 24,
            "NORMAL": 25,
            "TEXCOORD_0": 26
          },
          "indices": 27,
          "material": 6
        }
      ]
    },
    {
      "primitives": [
        {
          "mode": 4,
          "attributes": {
            "POSITION": 28,
            "NORMAL": 29,
            "TEXCOORD_0": 30
          },
          "indices": 31,
          "material": 7
        }
      ]
    }
  ],
  "extensions": {
    "KHR_lights_punctual": {
      "lights": [
        {
          "name": "DirectionalLight",
          "color": [
            1,
            1,
            1
          ],
          "intensity": 1,
          "type": "directional"
        },
        {
          "name": "DirectionalLight",
          "color": [
            1,
            1,
            1
          ],
          "intensity": 1,
          "type": "directional"
        },
        {
          "name": "DirectionalLight",
          "color": [
            1,
            1,
            1
          ],
          "intensity": 1,
          "type": "directional"
        },
        {
          "name": "DirectionalLight",
          "color": [
            1,
            1,
            1
          ],
          "intensity": 1,
          "type": "directional"
        }
      ]
    }
  },
  "extensionsUsed": [
    "KHR_lights_punctual"
  ]
}